HIERARCHY
ROOT Hips
{
	OFFSET 0.00000 0.00000 0.00000
	CHANNELS 6 Xposition Yposition Zposition Zrotation Yrotation Xrotation 
	JOINT LHipJoint
	{
		OFFSET 0 0 0
		CHANNELS 3 Zrotation Yrotation Xrotation
		JOINT LeftUpLeg
		{
			OFFSET 1.28858 -1.83292 1.03970
			CHANNELS 3 Zrotation Yrotation Xrotation
			JOINT LeftLeg
			{
				OFFSET 2.47846 -6.80952 0.00000
				CHANNELS 3 Zrotation Yrotation Xrotation
				JOINT LeftFoot
				{
					OFFSET 2.75274 -7.56311 0.00000
					CHANNELS 3 Zrotation Yrotation Xrotation
					JOINT LeftToeBase
					{
						OFFSET 0.12848 -0.35301 1.68223
						CHANNELS 3 Zrotation Yrotation Xrotation
						End Site
						{
							OFFSET 0.00000 -0.00000 0.87311
						}
					}
				}
			}
		}
	}
	JOINT RHipJoint
	{
		OFFSET 0 0 0
		CHANNELS 3 Zrotation Yrotation Xrotation
		JOINT RightUpLeg
		{
			OFFSET -1.31183 -1.83292 1.03970
			CHANNELS 3 Zrotation Yrotation Xrotation
			JOINT RightLeg
			{
				OFFSET -2.44740 -6.72417 0.00000
				CHANNELS 3 Zrotation Yrotation Xrotation
				JOINT RightFoot
				{
					OFFSET -2.67343 -7.34519 0.00000
					CHANNELS 3 Zrotation Yrotation Xrotation
					JOINT RightToeBase
					{
						OFFSET -0.16914 -0.46471 1.77626
						CHANNELS 3 Zrotation Yrotation Xrotation
						End Site
						{
							OFFSET -0.00000 -0.00000 0.92777
						}
					}
				}
			}
		}
	}
	JOINT LowerBack
	{
		OFFSET 0 0 0
		CHANNELS 3 Zrotation Yrotation Xrotation
		JOINT Spine
		{
			OFFSET 0.01249 2.14252 0.03842
			CHANNELS 3 Zrotation Yrotation Xrotation
			JOINT Spine1
			{
				OFFSET -0.02957 2.14199 -0.03751
				CHANNELS 3 Zrotation Yrotation Xrotation
				JOINT Neck
				{
					OFFSET 0 0 0
					CHANNELS 3 Zrotation Yrotation Xrotation
					JOINT Neck1
					{
						OFFSET -0.01678 1.65709 -0.05476
						CHANNELS 3 Zrotation Yrotation Xrotation
						JOINT Head
						{
							OFFSET 0.07912 1.58331 -0.11843
							CHANNELS 3 Zrotation Yrotation Xrotation
							End Site
							{
								OFFSET 0.03298 1.73940 -0.04271
							}
						}
					}
				}
				JOINT LeftShoulder
				{
					OFFSET 0 0 0
					CHANNELS 3 Zrotation Yrotation Xrotation
					JOINT LeftArm
					{
						OFFSET 3.39556 1.16496 0.08673
						CHANNELS 3 Zrotation Yrotation Xrotation
						JOINT LeftForeArm
						{
							OFFSET 5.23910 -0.00000 -0.00000
							CHANNELS 3 Zrotation Yrotation Xrotation
							JOINT LeftHand
							{
								OFFSET 3.31467 -0.00000 0.00000
								CHANNELS 3 Zrotation Yrotation Xrotation
								JOINT LeftFingerBase
								{
									OFFSET 0 0 0
									CHANNELS 3 Zrotation Yrotation Xrotation
									JOINT LeftHandIndex1
									{
										OFFSET 0.96590 -0.00000 0.00000
										CHANNELS 3 Zrotation Yrotation Xrotation
										End Site
										{
											OFFSET 0.77873 -0.00000 0.00000
										}
									}
								}
								JOINT LThumb
								{
									OFFSET 0 0 0
									CHANNELS 3 Zrotation Yrotation Xrotation
									End Site
									{
										OFFSET 0.79062 -0.00000 0.79062
									}
								}
							}
						}
					}
				}
				JOINT RightShoulder
				{
					OFFSET 0 0 0
					CHANNELS 3 Zrotation Yrotation Xrotation
					JOINT RightArm
					{
						OFFSET -3.27193 1.31331 0.33940
						CHANNELS 3 Zrotation Yrotation Xrotation
						JOINT RightForeArm
						{
							OFFSET -5.30252 -0.00000 0.00000
							CHANNELS 3 Zrotation Yrotation Xrotation
							JOINT RightHand
							{
								OFFSET -3.67875 -0.00000 0.00000
								CHANNELS 3 Zrotation Yrotation Xrotation
								JOINT RightFingerBase
								{
									OFFSET 0 0 0
									CHANNELS 3 Zrotation Yrotation Xrotation
									JOINT RightHandIndex1
									{
										OFFSET -0.59481 -0.00000 0.00000
										CHANNELS 3 Zrotation Yrotation Xrotation
										End Site
										{
											OFFSET -0.47955 -0.00000 0.00000
										}
									}
								}
								JOINT RThumb
								{
									OFFSET 0 0 0
									CHANNELS 3 Zrotation Yrotation Xrotation
									End Site
									{
										OFFSET -0.48687 -0.00000 0.48687
									}
								}
							}
						}
					}
				}
			}
		}
	}
}
MOTION
Frames: 11
Frame Time: 0.0408163
0.00 0.00 0.00 0 0 0 0 0 0 -21 0 0 0 0 0 0 0 0 0 0 0 0 0 0 21 0 0 0 0 0 0 0 0 0 0 0 0 0 0 0 0 0 0 0 0 0 0 -16 0 0 21 0 0 11 0 0 0 -8 0 0 0 0 0 0 0 0 0 0 0 0 0 0 0 0 0 0 0 0 8 0 0 0 0 0 0 0 0 0 0 0 0 0 0 0 0 0
0.00 0.00 0.00 -226.0620 -87.4309 230.1820 0.0000 0.0000 0.0000 -4.0420 1.6028 5.9890 0.0123 0.7152 1.9656 0.8983 -10.5106 -17.3715 8.7271 16.6289 55.1416 0.0000 0.0000 0.0000 13.2900 12.4145 11.5382 -0.0043 0.4232 -1.1629 -1.0037 -16.8280 -31.4191 -0.1860 -2.7776 7.6602 6.0716 0.3188 -4.8670 0.8315 0.1148 -3.8274 -2.5401 -0.0993 -1.2130 -0.4066 2.0760 -1.1758 0.8497 2.7588 1.8459 0.3515 1.3837 0.7357 0.0000 -0.0000 0.0000 -1.4684 -4.1765 -9.5739 11.0330 -18.3388 -1.7863 -0.0000 0.0000 -7.1143 8.1561 -5.7139 -0.8175 -7.1250 0.0000 -0.0000 -13.7085 24.2127 7.0763 0.0000 -0.0000 0.0000 15.3279 -2.1393 -27.8379 -10.7445 17.8956 -1.6966 0.0000 0.0000 17.9911 -10.8888 -49.6892 8.3451 7.1250 -0.0000 -0.0000 55.9869 -73.9996 -41.3562
0.00 0.00 0.00 -297.6750 -79.2745 302.2620 0.0000 0.0000 0.0000 -1.0899 -3.3084 0.7687 0.0002 -0.0839 -0.2306 1.8646 3.9502 -27.4580 8.0155 16.1307 52.6187 0.0000 0.0000 0.0000 9.8753 17.1930 16.8454 -0.0667 1.6666 -4.5852 -2.2843 -23.0292 -43.8513 -0.8468 -5.8692 16.4054 4.4768 -1.2272 -2.7005 1.6147 -1.7333 -3.5327 -0.8554 -0.9816 -2.2037 -0.3775 2.1360 0.7445 -7.0745 2.5912 -2.6961 -2.1792 1.3427 -0.8732 0.0000 0.0000 0.0000 -0.5364 -6.5640 -12.9023 11.0376 -18.3459 -1.7877 -0.0000 0.0000 -6.3425 9.3213 -6.3843 -1.0456 -7.1250 0.0000 -0.0000 -12.7997 23.5340 6.7890 0.0000 0.0000 0.0000 13.8332 -1.3505 -31.8836 -10.8598 18.0730 -1.7322 0.0000 0.0000 12.2623 -13.6247 -50.3317 10.5684 7.1250 -0.0000 -0.0000 56.1336 -75.3432 -42.8418
0.00 0.00 0.00 -307.3610 -78.9319 312.9180 0.0000 0.0000 0.0000 1.9329 -5.1765 -2.8747 0.0008 -0.1798 -0.4941 3.0450 15.8659 -41.3533 9.2875 16.9892 57.0792 0.0000 0.0000 0.0000 11.3996 22.1173 19.7360 -0.1251 2.2804 -6.2811 -4.5980 -24.4640 -53.3127 -1.4542 -7.6223 21.5726 4.8830 -0.8598 -1.6976 2.0468 -1.1751 -3.6141 -0.6142 -0.7211 -2.8259 0.8655 4.0664 1.2355 -11.7764 4.9440 -3.4158 -4.0456 2.5530 -0.9624 0.0000 0.0000 0.0000 2.0120 -5.7907 -12.2529 11.3138 -18.7677 -1.8756 -0.0000 0.0000 -9.4865 13.2086 -6.2838 -1.4716 -7.1250 0.0000 -0.0000 -9.9689 23.5432 5.2338 0.0000 0.0000 0.0000 14.5362 0.7333 -41.2524 -9.9827 16.7125 -1.4700 0.0000 0.0000 9.7919 -20.2856 -50.7549 15.9740 7.1250 -0.0000 -0.0000 53.2951 -78.1959 -43.1362
0.00 0.00 0.00 -346.2030 -79.2527 351.6840 0.0000 0.0000 0.0000 6.4539 4.9140 -14.8002 0.6476 5.1478 14.3307 -0.3019 19.8082 -25.5482 7.8618 16.0167 52.0635 0.0000 0.0000 0.0000 14.8507 17.9267 17.8874 -0.1021 2.0601 -5.6718 -4.4921 -23.7411 -52.4644 -1.0604 -6.5470 18.3802 6.1464 0.7972 -1.2040 0.2824 1.0515 -3.2563 -3.1613 0.3568 -2.5828 4.8299 10.9066 0.8360 -14.9336 14.6280 -0.5101 -4.9424 7.2608 1.2034 0.0000 -0.0000 0.0000 6.6395 -8.0269 -8.3870 11.6097 -19.2167 -1.9719 -0.0000 0.0000 -13.1963 15.6809 -5.7832 -1.6203 -7.1250 0.0000 -0.0000 -8.1745 23.9820 4.1873 0.0000 -0.0000 0.0000 11.5574 -0.3955 -49.9858 -11.1400 18.5025 -1.8201 0.0000 0.0000 0.8392 -26.8123 -53.4447 22.0964 7.1250 -0.0000 -0.0000 66.3855 -81.8378 -58.6315
0.00 0.00 0.00 -379.4980 -71.7174 383.7300 0.0000 0.0000 0.0000 10.1389 9.6459 -26.9661 2.8795 10.4973 30.6027 1.0118 7.0596 -22.8035 4.8927 13.2620 40.3571 0.0000 0.0000 0.0000 18.6914 5.7741 12.7961 -0.0213 0.9431 -2.5922 -2.8807 -20.7579 -44.3572 -0.2536 -3.2401 8.9480 6.5814 1.3051 0.2458 -1.0270 1.8168 -2.5237 -4.7972 0.7456 -2.5135 4.7121 12.1404 -0.1460 -15.2104 16.2373 -0.7758 -4.8595 8.0261 1.4627 -0.0000 0.0000 0.0000 7.4816 -10.4635 -15.5510 11.7108 -19.3695 -2.0053 -0.0000 0.0000 -9.6605 16.8939 -6.5338 -1.9793 -7.1250 0.0000 -0.0000 -7.2522 23.1667 3.8442 -0.0000 0.0000 0.0000 3.7455 2.2513 -52.0973 -12.7834 20.9690 -2.3752 0.0000 -0.0000 -4.9858 -34.2591 -50.9500 27.8764 7.1250 -0.0000 -0.0000 46.2090 -84.5202 -42.1157
0.00 0.00 0.00 -391.3650 -59.9447 394.4070 0.0000 0.0000 0.0000 13.1495 13.1599 -40.8210 6.3937 14.7993 46.5421 1.7045 -1.0772 -24.3825 5.3035 13.7177 42.1180 0.0000 0.0000 0.0000 22.8586 -6.8030 4.0069 -0.2361 -3.1272 8.6331 -2.8778 -14.5714 -39.6736 -0.0033 0.3692 -1.0143 4.9952 1.8200 3.3461 -3.0786 2.5632 -1.7884 -6.1702 1.1215 -3.3729 5.2308 12.2362 0.4006 -15.1831 16.0348 -3.6104 -5.0759 8.0692 0.5635 -0.0000 -0.0000 0.0000 8.2960 -12.6426 -13.5046 12.0328 -19.8539 -2.1134 -0.0000 0.0000 -12.2399 21.7258 -5.8290 -2.3174 -7.1250 0.0000 -0.0000 -3.6956 23.7108 1.9014 -0.0000 -0.0000 0.0000 -4.2035 6.3477 -47.8520 -16.1042 25.6617 -3.6910 0.0000 -0.0000 -11.4061 -30.7279 -48.7403 24.0769 7.1250 -0.0000 -0.0000 34.1182 -81.6219 -29.1297
0.00 0.00 0.00 -391.1420 -51.2854 396.6270 0.0000 0.0000 0.0000 10.0421 14.8406 -55.9034 10.8674 17.8696 62.3501 2.1436 -3.6625 -26.8012 3.1084 10.8686 31.8378 0.0000 0.0000 0.0000 23.4167 -10.2864 -2.2382 -0.9665 -6.2594 17.5390 -3.6192 -12.2849 -41.6175 -0.2834 3.4235 -9.4602 0.5255 2.2702 4.9199 -6.3480 2.7596 -0.7463 -7.1389 1.2742 -3.1971 4.9101 11.7978 -0.1736 -14.9616 15.2477 -5.2228 -5.0318 7.7335 0.0627 0.0000 -0.0000 0.0000 8.3581 -17.2082 -24.5883 10.2170 -17.0782 -1.5381 -0.0000 0.0000 -4.1945 23.3351 -5.8199 -2.5047 -7.1250 0.0000 -0.0000 -2.5023 23.6466 1.2897 0.0000 -0.0000 0.0000 -12.7803 11.9556 -49.7918 -18.4241 28.6967 -4.7511 0.0000 -0.0000 -15.5283 -30.6803 -46.7606 23.3746 7.1250 -0.0000 -0.0000 25.1759 -80.1682 -20.6744
0.00 0.00 0.00 -390.8070 -31.9618 403.2430 0.0000 0.0000 0.0000 6.4349 9.6506 -75.4131 16.2485 19.6592 78.9713 4.5578 -4.3655 -39.6309 1.2200 7.0059 19.7327 0.0000 0.0000 0.0000 30.1069 -13.0649 -6.7049 -1.2048 -6.9638 19.6081 -2.3194 -17.9674 -39.6098 -0.3925 4.0227 -11.1404 -1.8764 2.0355 9.9145 -10.3870 1.8140 1.4375 -10.3228 0.7806 -3.7867 6.0293 8.8736 -4.0466 -11.9917 11.2109 -7.1995 -4.8415 5.6359 -0.4841 -0.0000 -0.0000 0.0000 14.3295 -33.8595 -57.8512 6.5940 -11.2492 -0.6501 -0.0000 -0.0000 13.1264 35.9766 -8.5907 -6.1886 -7.1250 0.0000 -0.0000 6.4666 19.4409 -3.9708 -0.0000 -0.0000 0.0000 -24.8835 19.4167 -60.1088 -19.1595 29.6164 -5.1094 0.0000 -0.0000 -18.0392 -32.3761 -45.0005 24.1483 7.1250 -0.0000 -0.0000 16.2534 -79.4187 -13.0413
0.00 0.00 0.00 -390.3900 -24.2795 410.2360 0.0000 0.0000 0.0000 9.9306 6.0832 -81.4446 16.8410 19.7590 80.7279 3.4666 -10.2135 -33.7086 1.9347 8.7287 24.9503 0.0000 0.0000 0.0000 31.4715 -8.6882 -9.3470 -0.7542 -5.5469 15.4751 1.0707 -25.4389 -28.8203 -0.7456 -5.5157 15.3855 -4.8916 2.0588 12.0592 -11.9279 1.1687 1.9269 -10.3399 0.4677 -4.6095 9.0295 6.8641 -5.6180 -11.6813 8.1786 -9.9930 -4.8887 4.0564 -1.1392 -0.0000 -0.0000 0.0000 23.2508 -40.2414 -71.1574 5.8304 -9.9789 -0.5094 -0.0000 -0.0000 17.2490 39.6919 -7.9673 -6.5626 -7.1250 0.0000 -0.0000 9.1568 19.7367 -5.5979 -0.0000 -0.0000 0.0000 -28.3852 19.1780 -63.3775 -19.1777 29.6389 -5.1184 0.0000 -0.0000 -19.4742 -32.0943 -44.5353 23.7427 7.1250 -0.0000 -0.0000 15.4522 -78.8934 -12.2304
0.00 0.00 0.00 -389.5480 -20.2994 414.9920 0.0000 0.0000 0.0000 11.1550 4.4340 -84.7754 16.3830 19.6834 79.3708 2.9158 -12.8773 -30.8723 2.6190 10.0511 29.1422 0.0000 0.0000 0.0000 31.1073 -3.5951 -10.6038 -0.3935 -4.0280 11.1555 4.5384 -34.7145 -18.3088 -0.8989 -6.0425 16.9078 -6.9428 2.0782 13.0633 -12.6843 0.7064 1.9464 -10.0105 0.2622 -5.2406 11.8642 5.4293 -6.1479 -11.6596 5.9813 -11.8721 -5.4561 2.8431 -1.7483 0.0000 0.0000 0.0000 29.6252 -43.1615 -76.6359 4.8118 -8.2666 -0.3479 -0.0000 -0.0000 19.6731 42.6033 -8.6871 -7.9079 -7.1250 0.0000 -0.0000 11.0431 18.3740 -7.1328 0.0000 0.0000 0.0000 -29.6538 17.4964 -63.6815 -19.1514 29.6064 -5.1054 0.0000 -0.0000 -19.4909 -30.9448 -43.2648 22.3385 7.1250 -0.0000 -0.0000 14.3396 -77.2942 -10.8751
